<svg xmlns="http://www.w3.org/2000/svg" viewBox="0 0 64 64"><defs><linearGradient id="g1" x1="0" y1="0" x2="1" y2="0"><stop offset="0" stop-color="#8FCBFF"></stop><stop offset="1" stop-color="#2E90FA"></stop></linearGradient><linearGradient id="g2" x1="0" y1="0" x2="0" y2="1"><stop offset="0" stop-color="#0F4DA8"></stop><stop offset="0.35" stop-color="#2E90FA"></stop><stop offset="1" stop-color="#2E90FA"></stop></linearGradient><linearGradient id="g3" x1="0" y1="0" x2="1" y2="1"><stop offset="0" stop-color="#093672"></stop><stop offset="1" stop-color="#1668D9"></stop></linearGradient></defs><rect width="64" height="64" rx="14" fill="#070c16"></rect><g transform="translate(8,8) scale(0.75)"><path d="M10 8 H53 A1.5 1.5 0 0 1 54.5 9.5 V17.5 A1.5 1.5 0 0 1 53 19 H22 A12 12 0 0 0 10 8 Z" fill="url(#g1)"></path><path d="M10 8 A11 11 0 0 1 21 19 H10 Z" fill="url(#g1)"></path><path d="M24 19 H36 V24 L24 30 Z" fill="url(#g3)"></path><path d="M24 24 L36 18.6 V50 A4 4 0 0 1 32 54 H28 A4 4 0 0 1 24 50 Z" fill="url(#g2)"></path><path d="M44 29 H53.5 A1.5 1.5 0 0 1 55 30.5 V46 L46.5 37.5 Z" fill="#8FCBFF"></path></g></svg>
